# xmcd
#
# Track frame offsets:
#	187
#	17547
#	35320
#	51590
#	65690
#	85267
#	100182
#	119992
#	136645
#	158550
#	180512
#	204890
#	223860
#	243290
#	264067
#	281850
#
# Disc length: 3964 seconds
#
# Revision: 1
# Processed by: cddbd v1.5.1PL0 Copyright (c) Steve Scherf et al.
# Submitted via: CDex 1.50Beta5
#
DISCID=de0f7a10
DTITLE=ニック・ニューサー - NEW BEST サチコ
DYEAR=1994
DGENRE=World
TTITLE0=サチコ
TTITLE1=ムーンライト
TTITLE2=ダンシング
TTITLE3=酒場にて
TTITLE4=ラブ・イズ・オーバー
TTITLE5=かませてBABY
TTITLE6=あなたと眠りたい
TTITLE7=お祭さわぎ
TTITLE8=悲しみよ闇に散れ
TTITLE9=放されて
TTITLE10=大阪で生まれた女
TTITLE11=秋冬
TTITLE12=笑わせないでよ
TTITLE13=酔多話
TTITLE14=酒は女の子守歌
TTITLE15=よこはまチャチャ
EXTD=
EXTT0=
EXTT1=
EXTT2=
EXTT3=
EXTT4=
EXTT5=
EXTT6=
EXTT7=
EXTT8=
EXTT9=
EXTT10=
EXTT11=
EXTT12=
EXTT13=
EXTT14=
EXTT15=
PLAYORDER=
